<!--<svg xmlns="http://www.w3.org/2000/svg" version="1.1" xmlns:xlink="http://www.w3.org/1999/xlink" xmlns:svgjs="http://svgjs.dev/svgjs" viewBox="0 0 800 800"><rect width="100%" height="100%" fill="#ffffff"></rect><g fill="#d3d3d3"><rect width="163" height="1" x="463.5" y="772.5" rx="0.5" transform="rotate(44, 545, 773)"></rect><rect width="616" height="1" x="135" y="113.5" rx="0.5" transform="rotate(44, 443, 114)"></rect><rect width="52" height="1" x="158" y="648.5" rx="0.5" transform="rotate(44, 184, 649)"></rect><rect width="515" height="1" x="162.5" y="378.5" rx="0.5" transform="rotate(44, 420, 379)"></rect><rect width="556" height="1" x="-166" y="302.5" rx="0.5" transform="rotate(44, 112, 303)"></rect><rect width="91" height="1" x="605.5" y="288.5" rx="0.5" transform="rotate(44, 651, 289)"></rect><rect width="609" height="1" x="403.5" y="566.5" rx="0.5" transform="rotate(44, 708, 567)"></rect><rect width="381" height="1" x="261.5" y="255.5" rx="0.5" transform="rotate(44, 452, 256)"></rect><rect width="70" height="1" x="701" y="417.5" rx="0.5" transform="rotate(44, 736, 418)"></rect><rect width="677" height="1" x="-45.5" y="617.5" rx="0.5" transform="rotate(44, 293, 618)"></rect><rect width="115" height="1" x="-24.5" y="483.5" rx="0.5" transform="rotate(44, 33, 484)"></rect><rect width="403" height="1" x="-169.5" y="554.5" rx="0.5" transform="rotate(44, 32, 555)"></rect><rect width="640" height="1" x="272" y="43.5" rx="0.5" transform="rotate(44, 592, 44)"></rect><rect width="147" height="1" x="-40.5" y="177.5" rx="0.5" transform="rotate(44, 33, 178)"></rect><rect width="409" height="1" x="309.5" y="680.5" rx="0.5" transform="rotate(44, 514, 681)"></rect><rect width="546" height="1" x="-146" y="27.5" rx="0.5" transform="rotate(44, 127, 28)"></rect><rect width="229" height="1" x="561.5" y="24.5" rx="0.5" transform="rotate(44, 676, 25)"></rect><rect width="837" height="1" x="243.5" y="612.5" rx="0.5" transform="rotate(44, 662, 613)"></rect><rect width="272" height="1" x="643" y="379.5" rx="0.5" transform="rotate(44, 779, 380)"></rect><rect width="19" height="1" x="1.5" y="406.5" rx="0.5" transform="rotate(44, 11, 407)"></rect><rect width="1054" height="1" x="233" y="39.5" rx="0.5" transform="rotate(44, 760, 40)"></rect><rect width="441" height="1" x="-75.5" y="434.5" rx="0.5" transform="rotate(44, 145, 435)"></rect><rect width="104" height="1" x="281" y="763.5" rx="0.5" transform="rotate(44, 333, 764)"></rect><rect width="417" height="1" x="125.5" y="489.5" rx="0.5" transform="rotate(44, 334, 490)"></rect><rect width="104" height="1" x="127" y="410.5" rx="0.5" transform="rotate(44, 179, 411)"></rect><rect width="178" height="1" x="400" y="545.5" rx="0.5" transform="rotate(44, 489, 546)"></rect><rect width="459" height="1" x="238.5" y="308.5" rx="0.5" transform="rotate(44, 468, 309)"></rect><rect width="388" height="1" x="175" y="460.5" rx="0.5" transform="rotate(44, 369, 461)"></rect><rect width="386" height="1" x="438" y="680.5" rx="0.5" transform="rotate(44, 631, 681)"></rect><rect width="269" height="1" x="602.5" y="348.5" rx="0.5" transform="rotate(44, 737, 349)"></rect><rect width="170" height="1" x="1" y="203.5" rx="0.5" transform="rotate(44, 86, 204)"></rect><rect width="308" height="1" x="259" y="329.5" rx="0.5" transform="rotate(44, 413, 330)"></rect><rect width="67" height="1" x="225.5" y="249.5" rx="0.5" transform="rotate(44, 259, 250)"></rect><rect width="79" height="1" x="692.5" y="760.5" rx="0.5" transform="rotate(44, 732, 761)"></rect><rect width="120" height="1" x="387" y="750.5" rx="0.5" transform="rotate(44, 447, 751)"></rect><rect width="392" height="1" x="286" y="165.5" rx="0.5" transform="rotate(44, 482, 166)"></rect><rect width="78" height="1" x="723" y="246.5" rx="0.5" transform="rotate(44, 762, 247)"></rect><rect width="510" height="1" x="10" y="326.5" rx="0.5" transform="rotate(44, 265, 327)"></rect><rect width="862" height="1" x="-353" y="94.5" rx="0.5" transform="rotate(44, 78, 95)"></rect><rect width="1079" height="1" x="-229.5" y="691.5" rx="0.5" transform="rotate(44, 310, 692)"></rect><rect width="162" height="1" x="463" y="188.5" rx="0.5" transform="rotate(44, 544, 189)"></rect><rect width="80" height="1" x="610" y="330.5" rx="0.5" transform="rotate(44, 650, 331)"></rect><rect width="95" height="1" x="470.5" y="27.5" rx="0.5" transform="rotate(44, 518, 28)"></rect><rect width="741" height="1" x="52.5" y="574.5" rx="0.5" transform="rotate(44, 423, 575)"></rect><rect width="540" height="1" x="133" y="279.5" rx="0.5" transform="rotate(44, 403, 280)"></rect><rect width="108" height="1" x="536" y="271.5" rx="0.5" transform="rotate(44, 590, 272)"></rect><rect width="682" height="1" x="63" y="167.5" rx="0.5" transform="rotate(44, 404, 168)"></rect><rect width="154" height="1" x="439" y="273.5" rx="0.5" transform="rotate(44, 516, 274)"></rect><rect width="120" height="1" x="501" y="721.5" rx="0.5" transform="rotate(44, 561, 722)"></rect><rect width="739" height="1" x="49.5" y="38.5" rx="0.5" transform="rotate(44, 419, 39)"></rect><rect width="623" height="1" x="334.5" y="757.5" rx="0.5" transform="rotate(44, 646, 758)"></rect><rect width="708" height="1" x="-121" y="171.5" rx="0.5" transform="rotate(44, 233, 172)"></rect><rect width="577" height="1" x="476.5" y="544.5" rx="0.5" transform="rotate(44, 765, 545)"></rect><rect width="241" height="1" x="474.5" y="499.5" rx="0.5" transform="rotate(44, 595, 500)"></rect><rect width="1502" height="1" x="-363" y="675.5" rx="0.5" transform="rotate(44, 388, 676)"></rect><rect width="168" height="1" x="434" y="479.5" rx="0.5" transform="rotate(44, 518, 480)"></rect><rect width="525" height="1" x="140.5" y="223.5" rx="0.5" transform="rotate(44, 403, 224)"></rect><rect width="102" height="1" x="154" y="463.5" rx="0.5" transform="rotate(44, 205, 464)"></rect><rect width="314" height="1" x="-119" y="291.5" rx="0.5" transform="rotate(44, 38, 292)"></rect><rect width="124" height="1" x="138" y="528.5" rx="0.5" transform="rotate(44, 200, 529)"></rect><rect width="362" height="1" x="475" y="487.5" rx="0.5" transform="rotate(44, 656, 488)"></rect><rect width="484" height="1" x="339" y="664.5" rx="0.5" transform="rotate(44, 581, 665)"></rect><rect width="711" height="1" x="-254.5" y="420.5" rx="0.5" transform="rotate(44, 101, 421)"></rect><rect width="411" height="1" x="142.5" y="573.5" rx="0.5" transform="rotate(44, 348, 574)"></rect><rect width="345" height="1" x="348.5" y="229.5" rx="0.5" transform="rotate(44, 521, 230)"></rect><rect width="725" height="1" x="411.5" y="723.5" rx="0.5" transform="rotate(44, 774, 724)"></rect><rect width="330" height="1" x="101" y="16.5" rx="0.5" transform="rotate(44, 266, 17)"></rect><rect width="481" height="1" x="26.5" y="120.5" rx="0.5" transform="rotate(44, 267, 121)"></rect><rect width="245" height="1" x="100.5" y="609.5" rx="0.5" transform="rotate(44, 223, 610)"></rect><rect width="295" height="1" x="197.5" y="239.5" rx="0.5" transform="rotate(44, 345, 240)"></rect><rect width="664" height="1" x="-75" y="383.5" rx="0.5" transform="rotate(44, 257, 384)"></rect><rect width="180" height="1" x="66" y="254.5" rx="0.5" transform="rotate(44, 156, 255)"></rect><rect width="392" height="1" x="-49" y="120.5" rx="0.5" transform="rotate(44, 147, 121)"></rect><rect width="78" height="1" x="158" y="701.5" rx="0.5" transform="rotate(44, 197, 702)"></rect><rect width="627" height="1" x="-211.5" y="502.5" rx="0.5" transform="rotate(44, 102, 503)"></rect><rect width="195" height="1" x="234.5" y="313.5" rx="0.5" transform="rotate(44, 332, 314)"></rect><rect width="194" height="1" x="580" y="239.5" rx="0.5" transform="rotate(44, 677, 240)"></rect><rect width="665" height="1" x="139.5" y="633.5" rx="0.5" transform="rotate(44, 472, 634)"></rect><rect width="408" height="1" x="146" y="121.5" rx="0.5" transform="rotate(44, 350, 122)"></rect><rect width="432" height="1" x="-189" y="337.5" rx="0.5" transform="rotate(44, 27, 338)"></rect><rect width="552" height="1" x="436" y="483.5" rx="0.5" transform="rotate(44, 712, 484)"></rect><rect width="157" height="1" x="510.5" y="216.5" rx="0.5" transform="rotate(44, 589, 217)"></rect><rect width="840" height="1" x="-138" y="62.5" rx="0.5" transform="rotate(44, 282, 63)"></rect><rect width="410" height="1" x="394" y="422.5" rx="0.5" transform="rotate(44, 599, 423)"></rect><rect width="343" height="1" x="-21.5" y="76.5" rx="0.5" transform="rotate(44, 150, 77)"></rect><rect width="566" height="1" x="181" y="213.5" rx="0.5" transform="rotate(44, 464, 214)"></rect><rect width="370" height="1" x="224" y="427.5" rx="0.5" transform="rotate(44, 409, 428)"></rect><rect width="175" height="1" x="163.5" y="679.5" rx="0.5" transform="rotate(44, 251, 680)"></rect><rect width="122" height="1" x="-11" y="436.5" rx="0.5" transform="rotate(44, 50, 437)"></rect><rect width="174" height="1" x="663" y="299.5" rx="0.5" transform="rotate(44, 750, 300)"></rect><rect width="577" height="1" x="-34.5" y="551.5" rx="0.5" transform="rotate(44, 254, 552)"></rect><rect width="586" height="1" x="-93" y="28.5" rx="0.5" transform="rotate(44, 200, 29)"></rect><rect width="1033" height="1" x="-215.5" y="184.5" rx="0.5" transform="rotate(44, 301, 185)"></rect><rect width="1188" height="1" x="-115" y="400.5" rx="0.5" transform="rotate(44, 479, 401)"></rect><rect width="319" height="1" x="445.5" y="599.5" rx="0.5" transform="rotate(44, 605, 600)"></rect><rect width="168" height="1" x="559" y="179.5" rx="0.5" transform="rotate(44, 643, 180)"></rect><rect width="273" height="1" x="538.5" y="75.5" rx="0.5" transform="rotate(44, 675, 76)"></rect><rect width="490" height="1" x="500" y="189.5" rx="0.5" transform="rotate(44, 745, 190)"></rect><rect width="539" height="1" x="194.5" y="488.5" rx="0.5" transform="rotate(44, 464, 489)"></rect><rect width="271" height="1" x="-29.5" y="703.5" rx="0.5" transform="rotate(44, 106, 704)"></rect><rect width="369" height="1" x="94.5" y="501.5" rx="0.5" transform="rotate(44, 279, 502)"></rect><rect width="522" height="1" x="-133" y="199.5" rx="0.5" transform="rotate(44, 128, 200)"></rect><rect width="253" height="1" x="450.5" y="335.5" rx="0.5" transform="rotate(44, 577, 336)"></rect><rect width="96" height="1" x="-12" y="657.5" rx="0.5" transform="rotate(44, 36, 658)"></rect><rect width="828" height="1" x="-370" y="32.5" rx="0.5" transform="rotate(44, 44, 33)"></rect><rect width="418" height="1" x="-122" y="590.5" rx="0.5" transform="rotate(44, 87, 591)"></rect><rect width="610" height="1" x="271" y="119.5" rx="0.5" transform="rotate(44, 576, 120)"></rect><rect width="390" height="1" x="7" y="304.5" rx="0.5" transform="rotate(44, 202, 305)"></rect><rect width="286" height="1" x="-125" y="238.5" rx="0.5" transform="rotate(44, 18, 239)"></rect><rect width="363" height="1" x="-137.5" y="387.5" rx="0.5" transform="rotate(44, 44, 388)"></rect><rect width="594" height="1" x="-79" y="81.5" rx="0.5" transform="rotate(44, 218, 82)"></rect><rect width="491" height="1" x="-56.5" y="137.5" rx="0.5" transform="rotate(44, 189, 138)"></rect><rect width="68" height="1" x="-11" y="106.5" rx="0.5" transform="rotate(44, 23, 107)"></rect><rect width="83" height="1" x="446.5" y="73.5" rx="0.5" transform="rotate(44, 488, 74)"></rect><rect width="205" height="1" x="426.5" y="136.5" rx="0.5" transform="rotate(44, 529, 137)"></rect><rect width="803" height="1" x="366.5" y="658.5" rx="0.5" transform="rotate(44, 768, 659)"></rect><rect width="169" height="1" x="615.5" y="669.5" rx="0.5" transform="rotate(44, 700, 670)"></rect><rect width="196" height="1" x="663" y="606.5" rx="0.5" transform="rotate(44, 761, 607)"></rect><rect width="541" height="1" x="-54.5" y="393.5" rx="0.5" transform="rotate(44, 216, 394)"></rect><rect width="659" height="1" x="-201.5" y="648.5" rx="0.5" transform="rotate(44, 128, 649)"></rect><rect width="573" height="1" x="260.5" y="431.5" rx="0.5" transform="rotate(44, 547, 432)"></rect><rect width="362" height="1" x="-44" y="160.5" rx="0.5" transform="rotate(44, 137, 161)"></rect><rect width="359" height="1" x="340.5" y="343.5" rx="0.5" transform="rotate(44, 520, 344)"></rect><rect width="714" height="1" x="415" y="473.5" rx="0.5" transform="rotate(44, 772, 474)"></rect><rect width="333" height="1" x="196.5" y="378.5" rx="0.5" transform="rotate(44, 363, 379)"></rect><rect width="685" height="1" x="281.5" y="378.5" rx="0.5" transform="rotate(44, 624, 379)"></rect><rect width="699" height="1" x="-193.5" y="499.5" rx="0.5" transform="rotate(44, 156, 500)"></rect><rect width="64" height="1" x="146" y="364.5" rx="0.5" transform="rotate(44, 178, 365)"></rect><rect width="538" height="1" x="-231" y="753.5" rx="0.5" transform="rotate(44, 38, 754)"></rect><rect width="55" height="1" x="112.5" y="349.5" rx="0.5" transform="rotate(44, 140, 350)"></rect><rect width="757" height="1" x="310.5" y="360.5" rx="0.5" transform="rotate(44, 689, 361)"></rect><rect width="592" height="1" x="-212" y="358.5" rx="0.5" transform="rotate(44, 84, 359)"></rect><rect width="1144" height="1" x="-332" y="763.5" rx="0.5" transform="rotate(44, 240, 764)"></rect><rect width="193" height="1" x="60.5" y="577.5" rx="0.5" transform="rotate(44, 157, 578)"></rect><rect width="514" height="1" x="-68" y="205.5" rx="0.5" transform="rotate(44, 189, 206)"></rect><rect width="268" height="1" x="637" y="119.5" rx="0.5" transform="rotate(44, 771, 120)"></rect><rect width="337" height="1" x="-97.5" y="249.5" rx="0.5" transform="rotate(44, 71, 250)"></rect><rect width="341" height="1" x="539.5" y="126.5" rx="0.5" transform="rotate(44, 710, 127)"></rect><rect width="177" height="1" x="458.5" y="616.5" rx="0.5" transform="rotate(44, 547, 617)"></rect><rect width="222" height="1" x="537" y="548.5" rx="0.5" transform="rotate(44, 648, 549)"></rect><rect width="128" height="1" x="353" y="488.5" rx="0.5" transform="rotate(44, 417, 489)"></rect><rect width="60" height="1" x="84" y="770.5" rx="0.5" transform="rotate(44, 114, 771)"></rect><rect width="104" height="1" x="261" y="398.5" rx="0.5" transform="rotate(44, 313, 399)"></rect><rect width="607" height="1" x="335.5" y="117.5" rx="0.5" transform="rotate(44, 639, 118)"></rect><rect width="565" height="1" x="270.5" y="553.5" rx="0.5" transform="rotate(44, 553, 554)"></rect><rect width="200" height="1" x="163" y="443.5" rx="0.5" transform="rotate(44, 263, 444)"></rect><rect width="814" height="1" x="266" y="423.5" rx="0.5" transform="rotate(44, 673, 424)"></rect><rect width="1154" height="1" x="-232" y="40.5" rx="0.5" transform="rotate(44, 345, 41)"></rect><rect width="278" height="1" x="-45" y="140.5" rx="0.5" transform="rotate(44, 94, 141)"></rect><rect width="914" height="1" x="-284" y="754.5" rx="0.5" transform="rotate(44, 173, 755)"></rect></g></svg>-->
<svg xmlns="http://www.w3.org/2000/svg" version="1.1" xmlns:xlink="http://www.w3.org/1999/xlink" xmlns:svgjs="http://svgjs.dev/svgjs" viewBox="0 0 800 800" opacity="1"><g stroke-width="1" stroke="#d3d3d3" fill="none"><path d="M764.3253973834046 -209.53049541898605C913.125871553862 -2.4560838078182314 907.8376890934271 806.6955502543055 756.343385925365 1011.8073957559432C604.849082757303 1216.9192412575808 185.9532163471613 982.0807746000432 37.152742176703896 775.0063629888753C-111.6477319937535 567.9319513777077 -109.39319326089361 222.96206552397393 42.10110990716851 17.85022002233609C193.59541307523057 -187.26162547930153 615.5249232129472 -416.60490703015375 764.3253973834046 -209.53049541898605C913.125871553862 -2.4560838078182314 907.8376890934271 806.6955502543055 756.343385925365 1011.8073957559432 "></path><path d="M747.7651492734699 -181.82456380903216C889.8019655270884 15.837374547082504 884.7541549966734 788.2093888791096 740.1459565180685 983.9979686761276C595.5377580394639 1179.7865484731456 195.68261282978324 955.6225575727685 53.6457965761648 757.9606192166539C-88.39101967745364 560.2986808605392 -86.23895997790555 231.0092443637932 58.369238500699225 35.22066456677544C202.9774369793039 -160.56791523024236 605.7283330198516 -379.4865021651468 747.7651492734699 -181.82456380903216C889.8019655270884 15.837374547082504 884.7541549966734 788.2093888791096 740.1459565180685 983.9979686761276 "></path><path d="M731.2048401283791 -154.11866271665633C866.4779984651586 34.13080238440523 861.6705598647632 769.723196986336 723.9484660756159 956.1885110787339C586.2263722864686 1142.6538251711318 205.41194827724894 929.1643100279157 70.13878994046945 740.9148449268541C-65.13436839630998 552.6653798257926 -63.084787730073685 239.05639268603454 74.63730605907364 52.59107859363655C212.35939984822096 -133.87423549876132 595.9316817915998 -342.3681278177179 731.2048401283791 -154.11866271665633C866.4779984651586 34.13080238440523 861.6705598647632 769.723196986336 723.9484660756159 956.1885110787339 "></path><path d="M714.6445920184447 -126.41267007154619C843.1540924383851 52.42432177446233 838.5870257680094 751.2370966462963 707.7510366683196 928.3791450340746C576.9150475686296 1105.5211934218526 215.1413447598709 902.706154035797 86.63184433993035 723.8691621897888C-41.87765608001013 545.0321703437801 -39.93055444708568 247.10363256101004 90.9054346526043 69.96158417323204C221.74142375229428 -107.18046421454596 586.1350915985041 -305.2496619175547 714.6445920184447 -126.41267007154619C843.1540924383851 52.42432177446233 838.5870257680094 751.2370966462963 707.7510366683196 928.3791450340746 "></path><path d="M698.0843439085102 -98.70676897917042C819.8301864116115 70.71774961178505 815.5034916712557 732.7509047535227 691.553607261023 900.5696874366811C567.6037228507904 1068.388470119839 224.87074124249284 876.2479064909444 103.12489873939126 706.823387899989C-18.620943763710216 537.3988693090337 -16.776321164097567 255.1507808832514 107.17356324613502 87.33199820009327C231.12344765636772 -80.48678448306487 576.3385014054085 -268.13128757012583 698.0843439085102 -98.70676897917042C819.8301864116115 70.71774961178505 815.5034916712557 732.7509047535227 691.553607261023 900.5696874366811 "></path><path d="M681.5241568337317 -71.00083736921647C796.5063414199942 89.0112079666859 792.4200186096582 714.2647433783272 675.3562388888829 872.7602603568653C558.2924591681076 1031.2557773354035 234.60019876027104 849.7896894636699 119.61801417400841 689.7776441277674C4.635829587745889 529.7655987918652 6.3779731540466855 263.19795972307077 123.44175287482199 104.7024427445325C240.5055325955973 -53.7930742340057 566.5419722474692 -231.01288270511884 681.5241568337317 -71.00083736921647C796.5063414199942 89.0112079666859 792.4200186096582 714.2647433783272 675.3562388888829 872.7602603568653 "></path><path d="M664.9638476886408 -43.294905759262576C773.1823743580644 107.30466632158664 769.3364234777482 695.7785820031313 659.1587484464302 844.9508332770497C548.9810734151124 994.1230845509679 244.32953420773663 823.331472436395 136.11100753831306 672.7319003555458C27.892480868889493 522.1323282746965 29.53214540187855 271.24513856289013 139.7098204331964 122.07288728897174C249.88749546451425 -27.099363984946535 556.7453210192173 -193.89447784011185 664.9638476886408 -43.294905759262576C773.1823743580644 107.30466632158664 769.3364234777482 695.7785820031313 659.1587484464302 844.9508332770497 "></path><path d="M648.4036911314406 -15.589004666886808C749.8585598840252 125.59809415890936 746.2529809337288 677.2923901103577 642.9614105918682 817.141375679656C539.6698402500077 956.9903612489545 254.05902224309295 796.8732248915421 152.60415349050834 655.6861260657461C51.14928473792378 514.4990272399499 52.686470237600986 279.2922868851314 155.9780405794615 139.44330131583297C259.26961092132194 -0.4056842534655516 546.948822378856 -156.77610349268298 648.4036911314406 -15.589004666886808C749.8585598840252 125.59809415890936 746.2529809337288 677.2923901103577 642.9614105918682 817.141375679656 "></path><path d="M631.8434125039279 12.116926943067142C726.5346233396735 143.8915525138102 723.1694163193968 658.8062287351618 626.7639506669937 789.3319485998404C530.3584850145905 919.8576684645191 263.7883882081368 770.4150078642674 169.09717737239112 638.6403822935245C74.40596653664551 506.86575672278127 75.84067300301092 287.33946572495074 172.24613865541403 156.8137458602722C268.65160430781725 26.288025995593614 537.1522016681823 -119.65769862767598 631.8434125039279 12.116926943067142C726.5346233396735 143.8915525138102 723.1694163193968 658.8062287351618 626.7639506669937 789.3319485998404 "></path><path d="M615.2831643939933 39.82288907059916C703.2107173129 162.18504138628919 700.085882222643 640.3200978775443 610.5665212596972 761.522552037603C521.0471602967514 882.7250061976615 273.5177846907586 743.956821354571 185.59023177185202 621.594669038881C97.66267885294536 499.2325167231909 98.99490628599898 295.38667508234823 188.51426724894475 174.18422092228957C278.0336282118906 52.981766762230905 527.3556114750868 -82.53926324509086 615.2831643939933 39.82288907059916C703.2107173129 162.18504138628919 700.085882222643 640.3200978775443 610.5665212596972 761.522552037603 "></path><path d="M598.7229162840588 67.52882068055305C679.8868112861264 180.47849974119003 677.0023481258892 621.8339365023485 594.3690918524009 733.7131249577872C511.73583557891243 845.5923134132258 283.24718117338057 717.4986043272963 202.08328617131292 604.5489252666594C120.91939116924527 491.59924620602237 122.14913956898704 303.4338539221676 204.78239584247547 191.5546654667288C287.4156521159639 79.67547701129007 517.5590212819911 -45.42085838008387 598.7229162840588 67.52882068055305C679.8868112861264 180.47849974119003 677.0023481258892 621.8339365023485 594.3690918524009 733.7131249577872 "></path><path d="M582.1626681741242 95.234752290507C656.5629052593529 198.77195809609088 653.9188140291354 603.3477751271528 578.1716624451044 705.9036978779716C502.4245108610734 808.4596206287904 292.9765776560025 691.0403873000216 218.57634057077382 587.5031814944376C144.17610348554513 483.96597568885386 145.3033728519751 311.48103276198697 221.05052443600613 208.92511001116804C296.79767602003716 106.36918726034924 507.7624310888955 -8.302453515076877 582.1626681741242 95.234752290507C656.5629052593529 198.77195809609088 653.9188140291354 603.3477751271528 578.1716624451044 705.9036978779716 "></path><path d="M565.6024353229786 122.94071441803902C633.2390144913684 217.0654469685698 630.8352951911706 584.8616442695352 561.974248296597 678.0943013157341C493.1132014020234 771.3269583619331 302.70598939741353 664.582200790325 235.0694102290238 570.4574682397943C167.43283106063404 476.3327356892635 168.45762139375222 319.52824211938446 237.31866828832585 226.29558507318546C306.17971518289954 133.06292802698653 497.9658561545889 28.815981867508242 565.6024353229786 122.94071441803902C633.2390144913684 217.0654469685698 630.8352951911706 584.8616442695352 561.974248296597 678.0943013157341 "></path><path d="M549.0422024718332 150.64658499283667C609.9151237233839 235.3588442883144 607.751776353206 566.3754218591832 545.7768341480896 650.2848132007624C483.80189194297327 734.1942045423414 312.43540113882455 638.1239227278941 251.56247988727375 553.4116634324164C190.68955863572302 468.6994041369387 191.61186993552934 327.5753599240476 253.58681214064563 243.6659685824685C315.561754345762 159.75657724088944 488.1692812202823 65.93432569735899 549.0422024718332 150.64658499283667C609.9151237233839 235.3588442883144 607.751776353206 566.3754218591832 545.7768341480896 650.2848132007624 "></path><path d="M532.4819543618985 178.35254712036874C586.5912176966103 253.65233316079332 584.6682422564522 547.8892910015657 529.5794047407933 622.4754166385248C474.4905672251343 697.0615422754839 322.16479762144644 611.6657362181975 268.05553428673466 536.3659501777729C213.94627095202287 461.0661641373483 214.7661032185174 335.62256928144507 269.85494073417635 261.03644364448587C324.94377824983525 186.45031800752673 478.37269102718676 103.05276107994405 532.4819543618985 178.35254712036874C586.5912176966103 253.65233316079332 584.6682422564522 547.8892910015657 529.5794047407933 622.4754166385248 "></path><path d="M515.921706251964 206.05847873032263C563.2673116698368 271.94579151569417 561.5847081596984 529.40312962637 513.3819753334968 594.6659895587093C465.17924250729527 659.9288494910486 331.8941941040684 585.2075191909228 284.54858868619556 519.3202064055513C237.20298326832278 453.4328936201797 237.92033650150546 343.66974812126443 286.123069327707 278.40688818892517C334.3258021539086 213.1440282565859 468.5761008340912 140.1711659449511 515.921706251964 206.05847873032263C563.2673116698368 271.94579151569417 561.5847081596984 529.40312962637 513.3819753334968 594.6659895587093 "></path><path d="M499.36147340081845 233.76441034027653C539.9434209018523 290.239249870595 538.5011893217336 510.91696825117424 497.18456118498943 566.8565624788936C455.8679330482453 622.7961567066129 341.62360584547935 558.7493021636482 301.0416583444455 502.2744626333297C260.4597108434117 445.7996231030112 261.0745850432826 351.7169269610838 302.3912131800268 295.7773327333644C343.707841316771 239.83773850564506 458.77952589978463 177.28957080995804 499.36147340081845 233.76441034027653C539.9434209018523 290.239249870595 538.5011893217336 510.91696825117424 497.18456118498943 566.8565624788936 "></path><path d="M482.8011947733057 261.4703572090195C516.6194843575006 308.53272348428493 515.4176247074017 492.4308221347676 480.98710126011497 539.0471506578671C446.5565778128281 585.6634791809665 351.3529718105232 532.2911003951625 317.5346822263283 485.2287341198971C283.7163926421334 438.16636784463174 284.2287878086925 359.76412105969223 318.65931125597933 313.14779253659276C353.0898347032662 266.53146401349323 448.98290518911085 214.4079909337541 482.8011947733057 261.4703572090195C516.6194843575006 308.53272348428493 515.4176247074017 492.4308221347676 480.98710126011497 539.0471506578671 "></path><path d="M466.2409924397383 289.17627356018437C493.2956241070942 326.82616658039666 492.3341363870152 473.9446455007828 464.7897176291857 511.2377083192624C437.2452988713562 548.530771137742 361.0824140695123 505.83286810909874 334.0277824021564 468.18297508888645C306.9731507348005 430.53308206867416 307.38306686804776 367.81128464072253 334.92748562587724 330.51822182224294C362.4719043837067 293.22515900376334 439.18636077238244 251.52638053997202 466.2409924397383 289.17627356018437C493.2956241070942 326.82616658039666 492.3341363870152 473.9446455007828 464.7897176291857 511.2377083192624 "></path><path d="M449.6807290710147 316.88220517013826C469.9717028215316 345.1196249352975 469.25058703147226 455.4584841255871 448.5922729631002 483.42828123944673C427.9339588947281 511.39807835330646 370.81179529334514 479.37465108182414 350.52082154282823 451.13723131666484C330.2298477923113 422.8998115515056 330.53728489224676 375.8584634805419 351.19559896061884 347.88866636668223C371.853913028991 319.9188692528225 429.3897553204978 288.644785404979 449.6807290710147 316.88220517013826C469.9717028215316 345.1196249352975 469.25058703147226 455.4584841255871 448.5922729631002 483.42828123944673 "></path><path d="M433.1204809610801 344.58813678009216C446.64779679475805 363.41308329019836 446.1670529347185 436.9723227503914 432.3948435558038 455.6188541596312C418.62263417688905 474.265385568871 380.5411917759671 452.91643405454937 367.01387594228913 434.0914875444432C353.4865601086112 415.2665410343371 353.6915181752348 383.90564232036127 367.46372755414956 365.25911091112147C381.2359369330643 346.61257950188167 419.59316512740213 325.763190269986 433.1204809610801 344.58813678009216C446.64779679475805 363.41308329019836 446.1670529347185 436.9723227503914 432.3948435558038 455.6188541596312 "></path><path d="M416.5602481099346 372.29408364883517C423.32390602677356 381.7065569038882 423.0835340967538 418.48617663398477 416.1974294072964 427.80944233860464C409.31132471783906 437.13270804322457 390.27060351737805 426.4582322860638 383.5069456005391 417.0457590310107C376.74328768370015 407.6332857759576 376.84576671701194 391.9528364189697 383.7318714064693 382.6295707143498C390.6179760959267 373.3063050097299 409.7965901930956 362.88161039378207 416.5602481099346 372.29408364883517C423.32390602677356 381.7065569038882 423.0835340967538 418.48617663398477 416.1974294072964 427.80944233860464 "></path></g></svg>